<svg width="100" height="100" viewBox="0 0 100 100" fill="none" xmlns="http://www.w3.org/2000/svg">
<path fill-rule="evenodd" clip-rule="evenodd" d="M0 84.7738V72.1466L10.2817 61.8837C12.0284 60.1401 14.8603 60.1401 16.607 61.8837C18.3537 63.6271 18.3537 66.454 16.607 68.1974L0 84.7738ZM16.2384 99.9991H13.8993C8.33809 99.9991 3.53972 96.7331 1.31763 92.0146L22.0965 71.2738C24.8147 68.5607 29.2222 68.5607 31.9404 71.2738L33.5565 72.887C36.2747 75.6002 36.2747 79.9994 33.5565 82.7128L16.2384 99.9991ZM37.4461 99.9991H24.7955L39.5927 85.2291C41.3394 83.4857 44.1713 83.4857 45.9178 85.2291C47.6646 86.9727 47.6646 89.7993 45.9178 91.5429L37.4461 99.9991ZM68.8898 99.9991H45.9698L78.0373 67.9906C80.7557 65.2772 85.1629 65.2772 87.8814 67.9906L89.4972 69.6036C92.2157 72.317 92.2157 76.7162 89.4972 79.4296L68.8898 99.9991ZM100 78.3372V86.0999C100 93.7762 93.7771 99.9991 86.1007 99.9991H77.4535L97.58 79.9097C98.2912 79.1998 99.118 78.6756 100 78.3372ZM100 15.6499V28.2773L89.7155 38.5429C87.9689 40.2863 85.1368 40.2863 83.3903 38.5429C81.6435 36.7993 81.6435 33.9727 83.3903 32.2291L100 15.6499ZM84.1872 0H86.1007C91.7758 0 96.6565 3.40114 98.8156 8.27625L77.9008 29.1526C75.1824 31.866 70.7752 31.866 68.0567 29.1526L66.4409 27.5397C63.7224 24.8263 63.7224 20.4271 66.4409 17.7137L84.1872 0ZM62.9784 0H75.6291L60.4047 15.1965C58.6579 16.94 55.826 16.94 54.0792 15.1965C52.3325 13.453 52.3325 10.6262 54.0792 8.88278L62.9784 0ZM31.5355 0H54.4554L21.9599 32.4358C19.2415 35.1492 14.8342 35.1492 12.1158 32.4358L10.4999 30.8229C7.78156 28.1095 7.78157 23.7104 10.4999 20.997L31.5355 0ZM22.973 0L2.41905 20.5162C1.70809 21.2258 0.881594 21.7499 0 22.0883V13.8992C0 6.22286 6.22292 0 13.8993 0H22.973Z" fill="#680AFF"/>
</svg>
