<svg width="45" height="45" viewBox="0 0 45 45" fill="none" xmlns="http://www.w3.org/2000/svg">
<g clip-path="url(#clip0_3609_6625)">
<path d="M31.375 10.5H29.5V8.625C29.5 8.275 29.225 8 28.875 8C28.525 8 28.25 8.275 28.25 8.625V10.5H15.75V8.625C15.75 8.275 15.475 8 15.125 8C14.775 8 14.5 8.275 14.5 8.625V10.5H12.625C9.525 10.5 7 13.025 7 16.125V32.375C7 35.475 9.525 38 12.625 38H31.375C34.475 38 37 35.475 37 32.375V16.125C37 13.025 34.475 10.5 31.375 10.5ZM21.375 19.25V24.25H15.75V19.25H21.375ZM28.25 19.25V24.25H22.625V19.25H28.25ZM35.75 19.25V24.25H29.5V19.25H35.75ZM14.5 24.25H8.25V19.25H14.5V24.25ZM8.25 25.5H14.5V30.5H8.25V25.5ZM15.75 25.5H21.375V30.5H15.75V25.5ZM21.375 31.75V36.75H15.75V31.75H21.375ZM22.625 31.75H28.25V36.75H22.625V31.75ZM22.625 30.5V25.5H28.25V30.5H22.625ZM29.5 25.5H35.75V30.5H29.5V25.5ZM12.625 11.75H31.375C33.7875 11.75 35.75 13.7125 35.75 16.125V18H8.25V16.125C8.25 13.7125 10.2125 11.75 12.625 11.75ZM8.25 32.375V31.75H14.5V36.75H12.625C10.2125 36.75 8.25 34.7875 8.25 32.375ZM31.375 36.75H29.5V31.75H35.75V32.375C35.75 34.7875 33.7875 36.75 31.375 36.75Z" fill="black"/>
</g>
<defs>
<clipPath id="clip0_3609_6625">
<rect width="30" height="30" fill="white" transform="translate(7 8)"/>
</clipPath>
</defs>
</svg>
